<?xml version="1.0" encoding="utf-8"?>
<!-- Generator: Adobe Illustrator 24.0.1, SVG Export Plug-In . SVG Version: 6.00 Build 0)  -->
<svg version="1.1" id="Camada_1" xmlns="http://www.w3.org/2000/svg" xmlns:xlink="http://www.w3.org/1999/xlink" x="0px" y="0px"
	 viewBox="0 0 64 64" style="enable-background:new 0 0 64 64;" xml:space="preserve">
<path style="opacity:0.5;fill:#B3B3B3;" d="M16.07,27.17c-2.05-1.67-3.2-3.77-2.66-6.15c-1.52,0.91-2.64,2.62-3.67,3.88
	c-3.42,4.17-5.85,8.98-6.27,14.02c-0.17,1.97,0.11,4.01,0.7,5.93c0.18,0.58,0.97,1.8,0.4,2.34c-0.42,0.39-1.1,0.06-1.51-0.15
	C1.94,46.48,1.07,45.67,0,45.07c0.34,2.05,1.76,4.21,2.89,6.04c1.02,1.66,2.27,3.14,3.6,4.64C7,56.32,7.35,57.06,8,57.54
	c4.72,3.45,10.37,5.06,16.57,5.81c1.63,0.2,3.25,0.63,4.91,0.66c1.87,0.04,3.86-0.28,5.71-0.46c4.91-0.48,9.47-1.21,13.94-3.02
	c4.93-2,8.99-5.05,12.04-8.76c1.08-1.31,2.38-2.87,2.83-4.42l-8.76,5.18c0.11-1.76,3.29-3.19,4.61-4.42
	c2.21-2.06,3.21-4.64,3.35-7.33c0.11-2.07-0.41-4.21-1.63-6.04c-1.31-1.96-3.52-3.54-4.34-5.71c-0.42-1.11-0.31-2.32-0.14-3.45
	c-3.85,0.74-5.58,4.1-5.58,7.01h-0.13c-0.48-9.11-9.26-16.87-8.49-26.09c0.2-2.35,1.44-4.38,2.64-6.47
	c-3.02,0.11-6.44,1.34-9.16,2.34c-8.84,3.24-16.02,8.86-19.12,16.42C16.21,21.32,15.28,24.49,16.07,27.17z"/>
</svg>
