<svg xmlns="http://www.w3.org/2000/svg" xmlns:xlink="http://www.w3.org/1999/xlink" id="Camada_1" x="0" y="0" version="1.1" viewBox="0 0 64 64" xml:space="preserve" style="enable-background:new 0 0 64 64"><path style="opacity:.7;fill:#fff;enable-background:new" d="M16.1,27.2c-2.1-1.7-3.2-3.8-2.7-6.1	c-1.5,0.9-2.6,2.6-3.7,3.9c-3.4,4.2-5.8,9-6.3,14c-0.2,2,0.1,4,0.7,5.9c0.2,0.6,1,1.8,0.4,2.3C4.1,47.6,3.4,47.3,3,47	c-1.1-0.6-2-1.4-3.1-2c0.3,2,1.8,4.2,2.9,6c1,1.7,2.3,3.1,3.6,4.6C7,56.3,7.3,57.1,8,57.5c4.7,3.5,10.4,5.1,16.6,5.8	c1.6,0.2,3.3,0.6,4.9,0.7c1.9,0,3.9-0.3,5.7-0.5c4.9-0.5,9.5-1.2,13.9-3c4.9-2,9-5,12-8.8c1.1-1.3,2.4-2.9,2.8-4.4l-8.8,5.2	c0.1-1.8,3.3-3.2,4.6-4.4c2.2-2.1,3.2-4.6,3.3-7.3c0.1-2.1-0.4-4.2-1.6-6c-1.3-2-3.5-3.5-4.3-5.7c-0.4-1.1-0.3-2.3-0.1-3.5	c-3.8,0.7-5.6,4.1-5.6,7h-0.1c-0.5-9.1-9.3-16.9-8.5-26.1C43,4.2,44.2,2.1,45.4,0c-3,0.1-6.4,1.3-9.2,2.3c-8.8,3.2-16,8.9-19.1,16.4	C16.2,21.3,15.3,24.5,16.1,27.2z"/></svg>