<?xml version="1.0" encoding="utf-8"?>
<!-- Generator: Adobe Illustrator 24.0.1, SVG Export Plug-In . SVG Version: 6.00 Build 0)  -->
<svg version="1.1" id="Camada_1" xmlns="http://www.w3.org/2000/svg" xmlns:xlink="http://www.w3.org/1999/xlink" x="0px" y="0px"
	 viewBox="0 0 64 64" style="enable-background:new 0 0 64 64;" xml:space="preserve">
<path style="opacity:0.7;fill:#FFFFFF;enable-background:new    ;" d="M64,36.1c-0.2-3.1-1.1-6.2-2.4-9.1c-0.8-1.9-2.2-3.8-2.3-5.8
	c-0.2-2.9,0.7-5.6,2.1-8.3c0.5-0.9,1-1.7,1.5-2.5c0.3-0.4,0.7-0.9,0.5-1.4c-0.3-1-2.5-2-3.4-2.6c-1.1-0.8-2.8-2.5-4.3-2.7
	c-0.7-0.1-1.4,0.3-2,0.5c-1,0.3-2.1,0.6-3.2,0.7c-3.5,0.6-7,0.4-10.3-0.6c-2.2-0.7-4.3-1.8-6-3.1c-0.7-0.5-1.4-1.5-2.5-1.1
	c-1,0.3-1.9,1.5-2.7,2c-1.9,1.2-4.2,2.2-6.6,2.7c-2.9,0.6-5.9,0.6-8.8,0.1c-1-0.2-2-0.4-3-0.7C9.9,4,9.2,3.7,8.6,3.7
	C7.9,3.8,7.4,4.3,6.9,4.6c-1,0.7-2.1,1.4-3.1,2C2.9,7.2,1.1,8,0.7,8.9c-0.2,0.5,0.1,0.9,0.4,1.3c0.6,0.8,1.1,1.5,1.5,2.3
	C4,15,5,17.8,4.9,20.5c-0.1,2.3-1.5,4.5-2.5,6.6c-1.1,2.5-1.8,5.1-2.2,7.7C-1,43,3.3,51.8,11.8,56.5c3.3,1.9,7.1,2.8,11,3.6
	c2.3,0.5,4.9,0.9,6.8,2.2c0.9,0.6,1.6,2.1,3,1.6c0.6-0.2,0.9-0.8,1.3-1.2c0.6-0.6,1.5-1,2.4-1.3c4.3-1.5,9.1-1.8,13.2-3.6
	C59.3,53.5,64.4,44.8,64,36.1z M45,29.7c-1.6,1-2.8,2.2-4.3,3.2c-0.7,0.5-1.9,1.1-2.1,1.8c-0.2,0.6,0.1,1.4,0.3,2.1
	c0.3,1.6,0.9,3.3,1,4.9l-5.4-2.3l-2.6-0.9l-2.5,0.9l-5.5,2.3l1-4.9l0.3-2.1l-1.7-1.5L19,29.6l6.4-0.7l2.6-0.4l1.4-1.9l2.7-4.4h0.2
	l2.7,4.4l1.3,1.9l2.5,0.4L45,29.7L45,29.7L45,29.7z"/>
</svg>
