<svg xmlns="http://www.w3.org/2000/svg" xmlns:xlink="http://www.w3.org/1999/xlink" id="Camada_1" x="0" y="0" version="1.1" viewBox="0 0 64 64" xml:space="preserve" style="enable-background:new 0 0 64 64"><path style="opacity:.7;fill:#fff;enable-background:new" d="M30.6,8.4c-0.5,0.8-0.1,2.7-0.1,3.6c1.5-0.4,2.8,0.4,4.1,1	c0-1.1,0.2-2.1,0.2-3.2c0-0.5,0.1-1-0.2-1.4C33.9,7.2,31.4,7.2,30.6,8.4z"/><path style="opacity:.7;fill:#fff;enable-background:new" d="M33.8,13.9c-0.1-0.7-1.1-1-1.7-1.1c-1.5-0.3-3.4,0-4.7,0.8	c-4.4,2.6-1.3,8.9,1.9,10.9c0-1,0.3-2.5-0.1-3.4c-0.5-1.2-2.5-2.3-1.8-3.8s3.4-1.7,4.8-2.1C33,15.1,34,14.8,33.8,13.9z M33.2,13.8	c-0.5,0.3-1.8,0.7-1.9-0.2C32,13.5,32.5,13.4,33.2,13.8L33.2,13.8z"/><path style="opacity:.7;fill:#fff;enable-background:new" d="M30.8,16.5l0.4,14.8c0.9-0.5,2.5-1.2,3-2.2	c0.2-0.4,0.1-1.1,0.1-1.5c0-1,0.1-2,0.1-3c0-3.1,0.3-6.3,0.3-9.4h-0.2C33.6,16,31.9,16.3,30.8,16.5z"/><path style="opacity:.7;fill:#fff;enable-background:new" d="M38.7,29.1c0-0.4,0-0.9-0.1-1.3c-0.2-0.6-0.5-1.1-0.8-1.6	c-0.4-0.6-1.1-1.5-1.9-1.8c0,1.3,0.3,3.1-0.4,4.3c-1.5,2.8-5.3,2.9-7,5.4c-0.8,1.2,0.4,3.3,1.5,3.9c0.2-1.1,0.8-2,1.7-2.7	C34,33.6,38.7,32.9,38.7,29.1z"/><path style="opacity:.7;fill:#fff;enable-background:new" d="M31.3,37.2c-0.1,0.4,0.1,1.1,0.1,1.6c0,1.5,0.1,3,0.1,4.6	c0.9-0.5,1.9-1,2.3-2c0.3-0.5,0.1-1.5,0.1-2.1c0-1.4,0.1-2.8,0.1-4.2C33.1,35.3,31.6,36.3,31.3,37.2z"/><path style="opacity:.7;fill:#fff;enable-background:new" d="M29.4,48.5c0.2,0.6,0.6,1.1,0.9,1.6h0.1c0-1.1,0.2-2.2,1-3	c0.8-0.9,2-1.1,3-1.8c2.2-1.5,3.5-4.9,1-6.8c0,1.6-0.3,3-1.4,4.2C32.3,44.3,28.3,45.3,29.4,48.5z"/><path style="opacity:.7;fill:#fff;enable-background:new" d="M31.8,47.9c-0.3,0.6-0.1,1.6-0.1,2.2c0,1.7-0.1,3.6,0.1,5.3	c0.1,0.8,0.6,1.3,1.4,0.9v-0.1h-0.8c0.2-0.9,0.9-1.6,1.1-2.5c0.4-2.3,0.2-4.9,0.2-7.2C33,46.8,32.1,47.3,31.8,47.9z"/><path style="opacity:.7;fill:#fff;enable-background:new" d="M35.1,51.8h-0.2l-1,3.4C35.5,54.8,35.8,52.9,35.1,51.8z"/><path style="opacity:.7;fill:#fff;enable-background:new" d="M49.5,31.9l4.8-2.8l9.8-5.8l-2-3.6L57.5,12L56,9.3l-0.7-0.9	L54.1,9l-2.8,1.6l-10.9,6.3V0H23.3v16.8c-3.6-1.7-7.1-4.2-10.6-6.2c-0.9-0.5-1.8-1.1-2.8-1.6C9.6,8.8,9.1,8.4,8.8,8.4	C8.4,8.5,8.2,9.1,8.1,9.3c-0.5,0.9-1,1.8-1.6,2.7c-1.5,2.6-3,5.2-4.5,7.8c-0.6,1.1-1.6,2.3-2,3.6l9.8,5.8l4.8,2.8l-4.2,2.4L0,40.3	c0.5,1.7,1.9,3.4,2.8,5c1.9,3.4,3.7,6.9,5.9,10.1c1.4-0.4,2.8-1.6,4.1-2.3c2.3-1.4,4.6-2.7,6.9-4.1c1.2-0.7,2.3-1.5,3.6-2.1V64h17.5	V46.8c1.3,0.5,2.4,1.4,3.6,2.1c2.3,1.4,4.6,2.7,6.9,4.1c1.3,0.8,2.7,1.9,4.1,2.3c2.1-3.2,3.9-6.7,5.9-10.1c0.9-1.6,2.3-3.3,2.8-5	l-10.3-5.9L49.5,31.9z M37.2,33.2c-0.6,0.4-1.9,0.8-2.2,1.4c-0.3,0.6-0.1,2-0.1,2.6c0.6,0.1,1,0.6,1.4,1c1.7,1.7,1.7,4,0.4,5.9	c-0.5,0.7-1.7,1.3-2,2c-0.2,0.4,0,1,0,1.4c0,1-0.1,2-0.1,3c1.8,0.3,2.4,2.6,1.5,4c-0.4,0.7-1.1,0.9-1.6,1.4	c-0.6,0.5-0.7,1.2-1.6,1.3C30,57.5,31,53.5,30.7,52c-0.1-0.6-0.7-0.9-1.1-1.3c-0.7-0.7-1.4-1.7-1.4-2.8c-0.1-0.9,0.2-1.9,0.9-2.7	c0.4-0.4,1.1-0.9,1.3-1.4c0.1-0.4,0-0.9,0-1.3c0-1.1-0.1-2.2-0.1-3.3c-1.9-0.4-3.6-3-3.1-4.9c0.3-1.1,1.8-2.2,2.8-2.4	c0-1.1-0.1-2.3-0.1-3.4c0-0.8,0.1-1.7-0.2-2.4c-0.2-0.4-0.9-0.7-1.2-1c-0.9-0.6-1.7-1.4-2.3-2.2c-2.4-3.1-3-8.5,1.4-10.2	c0.6-0.2,1.2-0.4,1.8-0.5C29.4,11,29,9,29.7,8c1.2-1.7,4.7-1.6,5.6,0.3c0.6,1.2,0.1,3.1,0,4.3c-0.2,2.2,0,4.4-0.1,6.6	c0,1.1-0.3,2.5,0,3.6c0.2,0.6,1.2,1,1.6,1.4c1.2,1.1,2.4,2.4,2.6,4.1C39.8,30.2,38.8,32.1,37.2,33.2z"/></svg>