<?xml version="1.0" encoding="utf-8"?>
<!-- Generator: Adobe Illustrator 24.0.1, SVG Export Plug-In . SVG Version: 6.00 Build 0)  -->
<svg version="1.1" id="Camada_1" xmlns="http://www.w3.org/2000/svg" xmlns:xlink="http://www.w3.org/1999/xlink" x="0px" y="0px"
	 viewBox="0 0 64 64" style="enable-background:new 0 0 64 64;" xml:space="preserve">
<path style="opacity:0.7;fill:#B3B3B3;" d="M30.65,8.44c-0.49,0.83-0.14,2.69-0.14,3.64c1.53-0.36,2.8,0.39,4.08,1.04
	c0-1.06,0.16-2.12,0.16-3.2c0-0.48,0.08-1.02-0.16-1.45C33.9,7.23,31.39,7.2,30.65,8.44z"/>
<path style="opacity:0.7;fill:#B3B3B3;" d="M33.85,13.93c-0.14-0.69-1.06-0.96-1.65-1.06c-1.55-0.27-3.36,0.02-4.72,0.82
	c-4.35,2.58-1.31,8.92,1.92,10.95c0-0.99,0.29-2.5-0.06-3.43c-0.45-1.23-2.47-2.27-1.77-3.84c0.69-1.52,3.39-1.66,4.78-2.05
	C33.04,15.14,34.03,14.82,33.85,13.93z M33.16,13.77c-0.54,0.32-1.76,0.72-1.92-0.24c0.7-0.14,1.25-0.21,1.92,0.08V13.77z"/>
<path style="opacity:0.7;fill:#B3B3B3;" d="M30.76,16.49l0.4,14.8c0.93-0.46,2.48-1.21,2.96-2.18c0.2-0.4,0.07-1.06,0.08-1.5
	c0.01-1.01,0.08-2.02,0.08-3.04c0-3.12,0.32-6.3,0.32-9.44h-0.16C33.63,16.03,31.92,16.33,30.76,16.49z"/>
<path style="opacity:0.7;fill:#B3B3B3;" d="M38.68,29.13c0-0.42,0.01-0.85-0.11-1.26c-0.19-0.58-0.48-1.12-0.82-1.62
	c-0.44-0.65-1.14-1.45-1.86-1.76c0,1.34,0.27,3.06-0.37,4.3c-1.45,2.81-5.32,2.91-7.02,5.36c-0.83,1.2,0.39,3.33,1.47,3.94
	c0.21-1.09,0.81-1.97,1.69-2.65C34.02,33.6,38.66,32.92,38.68,29.13z"/>
<path style="opacity:0.7;fill:#B3B3B3;" d="M31.31,37.23c-0.1,0.4,0.09,1.13,0.09,1.57c0,1.52,0.08,3.04,0.08,4.56
	c0.89-0.52,1.86-1.03,2.31-2.02c0.25-0.55,0.09-1.46,0.09-2.06c0-1.41,0.08-2.82,0.08-4.24C33.08,35.35,31.56,36.25,31.31,37.23z"/>
<path style="opacity:0.7;fill:#B3B3B3;" d="M29.35,48.46c0.21,0.6,0.59,1.1,0.93,1.62h0.08c0-1.14,0.19-2.17,0.96-3.05
	c0.77-0.87,2.02-1.11,2.96-1.75c2.18-1.49,3.54-4.89,1.04-6.8c0,1.58-0.25,3.05-1.4,4.22C32.34,44.32,28.26,45.33,29.35,48.46z"/>
<path style="opacity:0.7;fill:#B3B3B3;" d="M31.8,47.93c-0.25,0.62-0.08,1.57-0.08,2.23c0,1.72-0.08,3.57,0.09,5.28
	c0.08,0.79,0.6,1.29,1.35,0.88v-0.08h-0.8c0.21-0.87,0.92-1.59,1.1-2.49c0.44-2.25,0.18-4.9,0.18-7.19
	C32.98,46.75,32.07,47.27,31.8,47.93z"/>
<path style="opacity:0.7;fill:#B3B3B3;" d="M35.08,51.77h-0.16l-0.96,3.44C35.5,54.84,35.82,52.93,35.08,51.77z"/>
<path style="opacity:0.5;fill:#B3B3B3;" d="M49.5,31.92l4.75-2.75L64,23.42l-1.98-3.58L57.49,12l-1.55-2.67l-0.7-0.91l-1.16,0.56
	l-2.83,1.64l-10.92,6.3V0H23.25v16.83c-3.65-1.71-7.12-4.17-10.58-6.23c-0.91-0.54-1.84-1.07-2.75-1.62
	c-0.29-0.17-0.8-0.62-1.16-0.57c-0.34,0.05-0.55,0.65-0.7,0.92C7.55,10.23,7.02,11.11,6.51,12c-1.5,2.62-3.04,5.21-4.54,7.83
	C1.34,20.96,0.36,22.17,0,23.42l9.75,5.75l4.75,2.75l-4.17,2.44L0,40.25c0.51,1.72,1.92,3.44,2.81,5c1.91,3.36,3.73,6.86,5.86,10.08
	c1.41-0.44,2.82-1.57,4.08-2.33c2.3-1.38,4.61-2.73,6.92-4.08c1.17-0.69,2.34-1.54,3.58-2.08V64h17.5V46.83
	c1.25,0.54,2.41,1.39,3.58,2.08c2.31,1.36,4.62,2.71,6.92,4.08c1.27,0.76,2.68,1.89,4.08,2.33c2.13-3.22,3.94-6.73,5.86-10.08
	c0.89-1.56,2.3-3.28,2.81-5l-10.33-5.89L49.5,31.92z M37.17,33.18c-0.58,0.39-1.87,0.78-2.24,1.37c-0.35,0.56-0.08,1.96-0.08,2.61
	c0.56,0.13,0.98,0.6,1.37,1.01c1.65,1.72,1.69,3.99,0.36,5.92c-0.49,0.7-1.69,1.31-2,2.05c-0.16,0.39-0.05,1.01-0.05,1.43
	c0,0.99-0.08,1.97-0.08,2.96c1.85,0.33,2.39,2.62,1.48,4.05c-0.43,0.67-1.07,0.86-1.61,1.37c-0.57,0.54-0.7,1.21-1.63,1.29
	c-2.72,0.24-1.7-3.76-1.94-5.26c-0.09-0.58-0.72-0.93-1.09-1.33c-0.69-0.73-1.36-1.72-1.44-2.75c-0.07-0.94,0.24-1.94,0.87-2.66
	c0.37-0.43,1.12-0.9,1.32-1.43c0.14-0.39,0.05-0.94,0.05-1.35c0-1.1-0.08-2.18-0.08-3.28c-1.88-0.41-3.59-2.97-3.06-4.87
	c0.29-1.06,1.81-2.15,2.82-2.41c0-1.15-0.08-2.29-0.08-3.44c0-0.78,0.09-1.66-0.21-2.4c-0.17-0.41-0.88-0.73-1.23-0.99
	c-0.87-0.65-1.66-1.35-2.33-2.22c-2.4-3.07-3.02-8.46,1.37-10.16c0.59-0.23,1.2-0.45,1.84-0.48c0-1.22-0.38-3.19,0.33-4.23
	c1.18-1.73,4.7-1.6,5.64,0.31c0.59,1.19,0.12,3.07,0.03,4.33c-0.15,2.2,0.01,4.43-0.09,6.64c-0.05,1.1-0.33,2.52-0.05,3.6
	c0.16,0.61,1.17,0.97,1.61,1.38c1.19,1.09,2.37,2.39,2.58,4.06C39.79,30.21,38.78,32.12,37.17,33.18z"/>
</svg>
